<svg width="89" height="26" viewBox="0 0 89 26" fill="none" xmlns="http://www.w3.org/2000/svg">
<path d="M12.8069 7.69531C12.6826 7.26326 12.508 6.88151 12.2831 6.55007C12.0582 6.21271 11.783 5.92862 11.4575 5.6978C11.1379 5.46106 10.7709 5.28054 10.3566 5.15625C9.94823 5.03196 9.49546 4.96982 8.9983 4.96982C8.06909 4.96982 7.25233 5.20064 6.54802 5.66229C5.84963 6.12393 5.30512 6.79569 4.9145 7.67756C4.52387 8.5535 4.32856 9.62476 4.32856 10.8913C4.32856 12.1579 4.52091 13.2351 4.90562 14.1229C5.29032 15.0107 5.83483 15.6883 6.53914 16.1559C7.24345 16.6175 8.07501 16.8484 9.03381 16.8484C9.90384 16.8484 10.6466 16.6945 11.2622 16.3867C11.8836 16.073 12.3571 15.6321 12.6826 15.0639C13.014 14.4957 13.1798 13.824 13.1798 13.0487L13.961 13.1641H9.27352V10.2699H16.8818V12.5604C16.8818 14.1584 16.5445 15.5315 15.8698 16.6797C15.195 17.822 14.2658 18.7038 13.0821 19.3253C11.8984 19.9408 10.543 20.2486 9.01606 20.2486C7.31151 20.2486 5.81412 19.8728 4.52387 19.1211C3.23362 18.3635 2.22747 17.2893 1.5054 15.8984C0.789259 14.5017 0.431186 12.8445 0.431186 10.9268C0.431186 9.45312 0.644254 8.1392 1.07039 6.98508C1.50245 5.82505 2.10614 4.84257 2.88147 4.03764C3.6568 3.23272 4.55938 2.62015 5.58921 2.19993C6.61904 1.77971 7.73469 1.5696 8.93616 1.5696C9.96599 1.5696 10.9248 1.72053 11.8126 2.02237C12.7004 2.3183 13.4875 2.73852 14.1741 3.28303C14.8666 3.82753 15.4318 4.47561 15.8698 5.22727C16.3077 5.97301 16.5889 6.79569 16.7131 7.69531H12.8069ZM20.5332 25.1136C20.0538 25.1136 19.604 25.0752 19.1838 24.9982C18.7695 24.9272 18.4262 24.8355 18.1539 24.723L19.0062 21.8999C19.4501 22.036 19.8496 22.11 20.2047 22.1218C20.5657 22.1336 20.8765 22.0508 21.1369 21.8732C21.4032 21.6957 21.6192 21.3938 21.785 20.9677L22.0069 20.3906L17.1152 6.36364H21.0925L23.9156 16.3778H24.0577L26.9075 6.36364H30.9114L25.6113 21.4737C25.3568 22.2076 25.0106 22.8468 24.5726 23.3913C24.1406 23.9418 23.5931 24.3649 22.9302 24.6609C22.2673 24.9627 21.4683 25.1136 20.5332 25.1136ZM31.3468 20V6.36364H34.9512V8.76953H35.111C35.3951 7.97053 35.8685 7.3402 36.5314 6.87855C37.1943 6.4169 37.9874 6.18608 38.9107 6.18608C39.8458 6.18608 40.6419 6.41986 41.2988 6.88743C41.9558 7.34908 42.3938 7.97644 42.6127 8.76953H42.7548C43.033 7.98828 43.536 7.36387 44.264 6.89631C44.9979 6.42282 45.865 6.18608 46.8652 6.18608C48.1377 6.18608 49.1705 6.5915 49.9636 7.40234C50.7626 8.20727 51.1621 9.34955 51.1621 10.8292V20H47.389V11.5749C47.389 10.8174 47.1878 10.2492 46.7853 9.87038C46.3829 9.4916 45.8798 9.3022 45.2761 9.3022C44.5895 9.3022 44.0539 9.52119 43.6692 9.95916C43.2845 10.3912 43.0921 10.9624 43.0921 11.6726V20H39.4256V11.495C39.4256 10.8262 39.2332 10.2936 38.8485 9.89702C38.4697 9.50047 37.9696 9.3022 37.3482 9.3022C36.928 9.3022 36.5492 9.40874 36.2118 9.6218C35.8804 9.82895 35.617 10.1219 35.4217 10.5007C35.2264 10.8736 35.1287 11.3116 35.1287 11.8146V20H31.3468ZM61.1456 11.0334V14.0341H52.8537V11.0334H61.1456Z" fill="#313131"/>
<path d="M62.9393 20V1.81818H74.9776V4.98757H66.7834V9.31996H74.1786V12.4893H66.7834V20H62.9393ZM75.9923 20V6.36364H79.7742V20H75.9923ZM77.8921 4.60582C77.3299 4.60582 76.8475 4.41939 76.445 4.04652C76.0485 3.66773 75.8502 3.21496 75.8502 2.68821C75.8502 2.16738 76.0485 1.72053 76.445 1.34766C76.8475 0.968868 77.3299 0.779473 77.8921 0.779473C78.4544 0.779473 78.9338 0.968868 79.3303 1.34766C79.7328 1.72053 79.934 2.16738 79.934 2.68821C79.934 3.21496 79.7328 3.66773 79.3303 4.04652C78.9338 4.41939 78.4544 4.60582 77.8921 4.60582ZM88.557 6.36364V9.20455H80.345V6.36364H88.557ZM82.2093 3.09659H85.9913V15.8097C85.9913 16.1589 86.0446 16.4311 86.1511 16.6264C86.2576 16.8158 86.4056 16.949 86.595 17.0259C86.7903 17.1029 87.0152 17.1413 87.2697 17.1413C87.4473 17.1413 87.6248 17.1265 87.8024 17.0969C87.9799 17.0614 88.1161 17.0348 88.2107 17.017L88.8056 19.8313C88.6162 19.8905 88.3498 19.9586 88.0066 20.0355C87.6633 20.1184 87.246 20.1687 86.7548 20.1864C85.8433 20.2219 85.0443 20.1006 84.3578 19.8224C83.6771 19.5443 83.1474 19.1122 82.7686 18.5263C82.3898 17.9403 82.2034 17.2005 82.2093 16.3068V3.09659Z" fill="#FFE500"/>
</svg>
