<svg width="90" height="26" viewBox="0 0 90 26" fill="none" xmlns="http://www.w3.org/2000/svg">
<path d="M13.2368 7.69531C13.1125 7.26326 12.9379 6.88151 12.713 6.55007C12.4881 6.21271 12.2129 5.92862 11.8874 5.6978C11.5678 5.46106 11.2008 5.28054 10.7865 5.15625C10.3782 5.03196 9.92539 4.96982 9.42823 4.96982C8.49902 4.96982 7.68226 5.20064 6.97795 5.66229C6.27956 6.12393 5.73505 6.79569 5.34443 7.67756C4.9538 8.5535 4.75849 9.62476 4.75849 10.8913C4.75849 12.1579 4.95084 13.2351 5.33555 14.1229C5.72026 15.0107 6.26476 15.6883 6.96907 16.1559C7.67338 16.6175 8.50494 16.8484 9.46375 16.8484C10.3338 16.8484 11.0766 16.6945 11.6921 16.3867C12.3135 16.073 12.787 15.6321 13.1125 15.0639C13.444 14.4957 13.6097 13.824 13.6097 13.0487L14.3909 13.1641H9.70345V10.2699H17.3118V12.5604C17.3118 14.1584 16.9744 15.5315 16.2997 16.6797C15.625 17.822 14.6958 18.7038 13.512 19.3253C12.3283 19.9408 10.973 20.2486 9.44599 20.2486C7.74144 20.2486 6.24405 19.8728 4.9538 19.1211C3.66356 18.3635 2.6574 17.2893 1.93534 15.8984C1.21919 14.5017 0.861117 12.8445 0.861117 10.9268C0.861117 9.45312 1.07419 8.1392 1.50032 6.98508C1.93238 5.82505 2.53607 4.84257 3.3114 4.03764C4.08673 3.23272 4.98931 2.62015 6.01914 2.19993C7.04897 1.77971 8.16462 1.5696 9.36609 1.5696C10.3959 1.5696 11.3547 1.72053 12.2425 2.02237C13.1303 2.3183 13.9175 2.73852 14.604 3.28303C15.2965 3.82753 15.8617 4.47561 16.2997 5.22727C16.7377 5.97301 17.0188 6.79569 17.1431 7.69531H13.2368ZM20.9631 25.1136C20.4837 25.1136 20.0339 25.0752 19.6137 24.9982C19.1994 24.9272 18.8561 24.8355 18.5839 24.723L19.4361 21.8999C19.88 22.036 20.2795 22.11 20.6346 22.1218C20.9957 22.1336 21.3064 22.0508 21.5668 21.8732C21.8332 21.6957 22.0492 21.3938 22.2149 20.9677L22.4368 20.3906L17.5452 6.36364H21.5224L24.3456 16.3778H24.4876L27.3374 6.36364H31.3413L26.0412 21.4737C25.7868 22.2076 25.4405 22.8468 25.0025 23.3913C24.5705 23.9418 24.023 24.3649 23.3601 24.6609C22.6973 24.9627 21.8983 25.1136 20.9631 25.1136ZM31.7767 20V6.36364H35.3811V8.76953H35.5409C35.825 7.97053 36.2985 7.3402 36.9613 6.87855C37.6242 6.4169 38.4173 6.18608 39.3406 6.18608C40.2757 6.18608 41.0718 6.41986 41.7287 6.88743C42.3857 7.34908 42.8237 7.97644 43.0427 8.76953H43.1847C43.4629 7.98828 43.966 7.36387 44.6939 6.89631C45.4278 6.42282 46.2949 6.18608 47.2952 6.18608C48.5676 6.18608 49.6004 6.5915 50.3935 7.40234C51.1925 8.20727 51.592 9.34955 51.592 10.8292V20H47.8189V11.5749C47.8189 10.8174 47.6177 10.2492 47.2153 9.87038C46.8128 9.4916 46.3097 9.3022 45.706 9.3022C45.0195 9.3022 44.4838 9.52119 44.0991 9.95916C43.7144 10.3912 43.5221 10.9624 43.5221 11.6726V20H39.8555V11.495C39.8555 10.8262 39.6632 10.2936 39.2785 9.89702C38.8997 9.50047 38.3996 9.3022 37.7781 9.3022C37.3579 9.3022 36.9791 9.40874 36.6417 9.6218C36.3103 9.82895 36.0469 10.1219 35.8516 10.5007C35.6563 10.8736 35.5586 11.3116 35.5586 11.8146V20H31.7767ZM61.5755 11.0334V14.0341H53.2836V11.0334H61.5755Z" fill="white"/>
<path d="M63.3692 20V1.81818H75.4075V4.98757H67.2133V9.31996H74.6085V12.4893H67.2133V20H63.3692ZM76.4222 20V6.36364H80.2042V20H76.4222ZM78.3221 4.60582C77.7598 4.60582 77.2774 4.41939 76.875 4.04652C76.4784 3.66773 76.2802 3.21496 76.2802 2.68821C76.2802 2.16738 76.4784 1.72053 76.875 1.34766C77.2774 0.968868 77.7598 0.779473 78.3221 0.779473C78.8843 0.779473 79.3637 0.968868 79.7603 1.34766C80.1627 1.72053 80.364 2.16738 80.364 2.68821C80.364 3.21496 80.1627 3.66773 79.7603 4.04652C79.3637 4.41939 78.8843 4.60582 78.3221 4.60582ZM88.9869 6.36364V9.20455H80.7749V6.36364H88.9869ZM82.6393 3.09659H86.4212V15.8097C86.4212 16.1589 86.4745 16.4311 86.581 16.6264C86.6876 16.8158 86.8355 16.949 87.0249 17.0259C87.2202 17.1029 87.4451 17.1413 87.6996 17.1413C87.8772 17.1413 88.0547 17.1265 88.2323 17.0969C88.4099 17.0614 88.546 17.0348 88.6407 17.017L89.2355 19.8313C89.0461 19.8905 88.7798 19.9586 88.4365 20.0355C88.0932 20.1184 87.676 20.1687 87.1847 20.1864C86.2733 20.2219 85.4743 20.1006 84.7877 19.8224C84.1071 19.5443 83.5774 19.1122 83.1986 18.5263C82.8198 17.9403 82.6333 17.2005 82.6393 16.3068V3.09659Z" fill="#FFE500"/>
</svg>
